<svg width="124" height="228" viewBox="0 0 124 228" fill="none" xmlns="http://www.w3.org/2000/svg">
<mask id="path-1-inside-1_386_24" fill="white">
<path d="M7.9226 58.8065C6.87488 28.4238 -20.0987 3.59605 -46.2595 19.082C-49.064 20.7422 -51.8012 22.5306 -54.4619 24.4443C-72.1386 37.158 -85.6482 54.8279 -93.2825 75.2196C-100.917 95.6112 -102.333 117.809 -97.3514 139.005C-92.3701 160.202 -81.2151 179.445 -65.2972 194.302C-49.3793 209.158 -29.4132 218.961 -7.92402 222.471C13.5652 225.98 35.6125 223.038 55.4299 214.017C75.2472 204.997 91.9445 190.302 103.41 171.791C105.136 169.005 106.732 166.151 108.195 163.239C121.842 136.074 95.215 110.874 64.8324 111.922C34.4497 112.97 8.97031 89.1891 7.9226 58.8065Z"/>
</mask>
<path d="M7.9226 58.8065C6.87488 28.4238 -20.0987 3.59605 -46.2595 19.082C-49.064 20.7422 -51.8012 22.5306 -54.4619 24.4443C-72.1386 37.158 -85.6482 54.8279 -93.2825 75.2196C-100.917 95.6112 -102.333 117.809 -97.3514 139.005C-92.3701 160.202 -81.2151 179.445 -65.2972 194.302C-49.3793 209.158 -29.4132 218.961 -7.92402 222.471C13.5652 225.98 35.6125 223.038 55.4299 214.017C75.2472 204.997 91.9445 190.302 103.41 171.791C105.136 169.005 106.732 166.151 108.195 163.239C121.842 136.074 95.215 110.874 64.8324 111.922C34.4497 112.97 8.97031 89.1891 7.9226 58.8065Z" stroke="#9FE9A0" stroke-width="100" mask="url(#path-1-inside-1_386_24)"/>
</svg>
