<svg width="140" height="228" viewBox="0 0 140 228" fill="none" xmlns="http://www.w3.org/2000/svg">
<mask id="path-1-inside-1_256_11" fill="white">
<path d="M111.922 58.8065C110.874 28.4238 83.9008 3.59605 57.74 19.082C54.9355 20.7422 52.1984 22.5306 49.5376 24.4443C31.861 37.158 18.3513 54.8279 10.717 75.2196C3.08273 95.6112 1.66673 117.809 6.64808 139.005C11.6294 160.202 22.7844 179.445 38.7023 194.302C54.6203 209.158 74.5863 218.961 96.0755 222.471C117.565 225.98 139.612 223.038 159.429 214.017C179.247 204.997 195.944 190.302 207.41 171.791C209.136 169.005 210.731 166.151 212.194 163.239C225.841 136.074 199.215 110.874 168.832 111.922C138.449 112.97 112.97 89.1891 111.922 58.8065Z"/>
</mask>
<path d="M111.922 58.8065C110.874 28.4238 83.9008 3.59605 57.74 19.082C54.9355 20.7422 52.1984 22.5306 49.5376 24.4443C31.861 37.158 18.3513 54.8279 10.717 75.2196C3.08273 95.6112 1.66673 117.809 6.64808 139.005C11.6294 160.202 22.7844 179.445 38.7023 194.302C54.6203 209.158 74.5863 218.961 96.0755 222.471C117.565 225.98 139.612 223.038 159.429 214.017C179.247 204.997 195.944 190.302 207.41 171.791C209.136 169.005 210.731 166.151 212.194 163.239C225.841 136.074 199.215 110.874 168.832 111.922C138.449 112.97 112.97 89.1891 111.922 58.8065Z" stroke="#9FE9A0" stroke-width="100" mask="url(#path-1-inside-1_256_11)"/>
</svg>
