<svg width="13" height="13" viewBox="0 0 13 13" fill="none" xmlns="http://www.w3.org/2000/svg">
<path d="M6.14628 1.93118C7.76762 1.93118 7.95886 1.93677 8.59974 1.96662C8.98456 1.97138 9.36571 2.04206 9.72665 2.17559C9.98843 2.27618 10.2262 2.43063 10.4245 2.62893C10.6228 2.82724 10.7772 3.06497 10.8778 3.32676C11.0113 3.68769 11.082 4.06885 11.0868 4.45367C11.1166 5.09455 11.1222 5.28579 11.1222 6.90619C11.1222 8.5266 11.1166 8.71877 11.0868 9.35965C11.082 9.74447 11.0113 10.1256 10.8778 10.4866C10.7772 10.7483 10.6228 10.9861 10.4245 11.1844C10.2262 11.3827 9.98843 11.5371 9.72665 11.6377C9.36571 11.7713 8.98456 11.8419 8.59974 11.8467C7.95979 11.8765 7.76762 11.8821 6.14628 11.8821C4.52495 11.8821 4.3337 11.8765 3.69375 11.8467C3.30893 11.8419 2.92778 11.7713 2.56684 11.6377C2.30506 11.5371 2.06732 11.3827 1.86902 11.1844C1.67072 10.9861 1.51627 10.7483 1.41568 10.4866C1.28215 10.1256 1.21147 9.74447 1.20672 9.35965C1.17686 8.71877 1.17127 8.52753 1.17127 6.90619C1.17127 5.28486 1.17686 5.09455 1.20672 4.45367C1.21147 4.06885 1.28215 3.68769 1.41568 3.32676C1.51627 3.06497 1.67072 2.82724 1.86902 2.62893C2.06732 2.43063 2.30506 2.27618 2.56684 2.17559C2.92778 2.04206 3.30893 1.97138 3.69375 1.96662C4.33464 1.93677 4.52588 1.93118 6.14628 1.93118ZM6.14628 0.836914C4.49883 0.836914 4.29173 0.844377 3.64432 0.874229C3.141 0.883329 2.64289 0.977966 2.17131 1.15409C1.76866 1.3097 1.40299 1.54776 1.09775 1.85299C0.792512 2.15823 0.554452 2.5239 0.398845 2.92655C0.22272 3.39814 0.128083 3.89624 0.118982 4.39956C0.0891303 5.04698 0.081665 5.25407 0.081665 6.90153C0.081665 8.54899 0.0891303 8.75702 0.118982 9.40443C0.128083 9.90775 0.22272 10.4059 0.398845 10.8774C0.554452 11.2801 0.792512 11.6458 1.09775 11.951C1.40299 12.2562 1.76866 12.4943 2.17131 12.6499C2.64289 12.826 3.141 12.9207 3.64432 12.9298C4.29173 12.9596 4.49883 12.9671 6.14628 12.9671C7.79374 12.9671 8.00176 12.9596 8.64918 12.9298C9.1525 12.9207 9.65061 12.826 10.1222 12.6499C10.5248 12.4943 10.8905 12.2562 11.1957 11.951C11.501 11.6458 11.739 11.2801 11.8947 10.8774C12.0708 10.4059 12.1654 9.90775 12.1745 9.40443C12.2044 8.75702 12.2118 8.54992 12.2118 6.90153C12.2118 5.25314 12.2044 5.04698 12.1745 4.39956C12.1654 3.89624 12.0708 3.39814 11.8947 2.92655C11.739 2.5239 11.501 2.15823 11.1957 1.85299C10.8905 1.54776 10.5248 1.3097 10.1222 1.15409C9.65061 0.977966 9.1525 0.883329 8.64918 0.874229C8.00176 0.844377 7.79467 0.836914 6.14628 0.836914Z" fill="#16A085"/>
<path d="M6.14634 3.79053C5.52987 3.79053 4.92724 3.97334 4.41468 4.31586C3.90212 4.65837 3.50263 5.14519 3.26676 5.71475C3.03089 6.28432 2.96922 6.91103 3.08956 7.51565C3.20989 8.12026 3.50683 8.67561 3.94281 9.11145C4.37879 9.5473 4.93422 9.84407 5.53887 9.96422C6.14351 10.0844 6.77021 10.0225 7.33971 9.78648C7.9092 9.55044 8.39591 9.15081 8.73827 8.63814C9.08062 8.12548 9.26326 7.5228 9.26307 6.90633C9.26307 6.49708 9.18244 6.09183 9.0258 5.71375C8.86916 5.33566 8.63957 4.99214 8.35014 4.70279C8.06071 4.41345 7.71712 4.18396 7.33899 4.02744C6.96085 3.87091 6.55559 3.7904 6.14634 3.79053ZM6.14634 8.92973C5.74615 8.92973 5.35495 8.81106 5.0222 8.58873C4.68945 8.36639 4.4301 8.05038 4.27696 7.68065C4.12381 7.31092 4.08374 6.90408 4.16182 6.51158C4.23989 6.11908 4.4326 5.75854 4.71557 5.47556C4.99855 5.19259 5.3591 4.99988 5.7516 4.9218C6.1441 4.84373 6.55093 4.8838 6.92066 5.03695C7.29039 5.19009 7.6064 5.44944 7.82874 5.78218C8.05107 6.11493 8.16975 6.50614 8.16975 6.90633C8.16975 7.44297 7.95656 7.95763 7.5771 8.33709C7.19764 8.71655 6.68298 8.92973 6.14634 8.92973Z" fill="#16A085"/>
<path d="M9.38619 4.39611C9.78857 4.39611 10.1148 4.06992 10.1148 3.66754C10.1148 3.26516 9.78857 2.93896 9.38619 2.93896C8.98381 2.93896 8.65762 3.26516 8.65762 3.66754C8.65762 4.06992 8.98381 4.39611 9.38619 4.39611Z" fill="#16A085"/>
</svg>
