<svg width="9" height="13" viewBox="0 0 9 13" fill="none" xmlns="http://www.w3.org/2000/svg">
<path d="M7.56178 0H1.43822C0.652389 0 0 0.637562 0 1.42339V11.2389C0 12.0247 0.637562 12.6623 1.43822 12.6623H7.56178C8.34761 12.6623 9 12.0247 9 11.2389V1.42339C9 0.637562 8.36244 0 7.56178 0ZM8.55519 11.2389C8.55519 11.7875 8.11038 12.2175 7.56178 12.2175H1.43822C0.889621 12.2175 0.444811 11.7727 0.444811 11.2389V1.42339C0.444811 0.874794 0.889621 0.444811 1.43822 0.444811H7.56178C8.11038 0.444811 8.55519 0.889621 8.55519 1.42339V11.2389Z" fill="white"/>
<path d="M6.31632 1.40869H2.65405C2.53543 1.40869 2.43164 1.51248 2.43164 1.6311C2.43164 1.74971 2.53543 1.8535 2.65405 1.8535H6.31632C6.43494 1.8535 6.53872 1.74971 6.53872 1.6311C6.53872 1.51248 6.43494 1.40869 6.31632 1.40869Z" fill="white"/>
<path d="M4.4926 9.9043C4.07745 9.9043 3.75125 10.2453 3.75125 10.6456C3.75125 10.8384 3.82539 11.0312 3.97366 11.1646C4.1071 11.298 4.29985 11.3722 4.4926 11.3722C4.90776 11.3722 5.23395 11.0312 5.23395 10.6308C5.23395 10.2305 4.90776 9.9043 4.4926 9.9043ZM4.50743 10.9422C4.43329 10.9422 4.35916 10.9125 4.29985 10.8532C4.24054 10.7939 4.21089 10.7198 4.21089 10.6456C4.21089 10.4826 4.34433 10.3491 4.50743 10.3491C4.67053 10.3491 4.80397 10.4826 4.80397 10.6456C4.80397 10.8087 4.67053 10.9422 4.50743 10.9422Z" fill="white"/>
</svg>
