<svg width="228" height="228" viewBox="0 0 228 228" fill="none" xmlns="http://www.w3.org/2000/svg">
<mask id="path-1-inside-1_258_49" fill="white">
<path d="M111.922 58.8069C110.874 28.4243 83.9008 3.59654 57.74 19.0825C54.9355 20.7427 52.1984 22.5311 49.5376 24.4448C31.861 37.1585 18.3513 54.8284 10.717 75.2201C3.08273 95.6117 1.66673 117.809 6.64808 139.006C11.6294 160.202 22.7844 179.445 38.7023 194.302C54.6203 209.159 74.5863 218.962 96.0755 222.471C117.565 225.98 139.612 223.039 159.429 214.018C179.247 204.997 195.944 190.302 207.41 171.792C209.136 169.006 210.731 166.152 212.194 163.24C225.841 136.074 199.215 110.875 168.832 111.923C138.449 112.97 112.97 89.1896 111.922 58.8069Z"/>
</mask>
<path d="M111.922 58.8069C110.874 28.4243 83.9008 3.59654 57.74 19.0825C54.9355 20.7427 52.1984 22.5311 49.5376 24.4448C31.861 37.1585 18.3513 54.8284 10.717 75.2201C3.08273 95.6117 1.66673 117.809 6.64808 139.006C11.6294 160.202 22.7844 179.445 38.7023 194.302C54.6203 209.159 74.5863 218.962 96.0755 222.471C117.565 225.98 139.612 223.039 159.429 214.018C179.247 204.997 195.944 190.302 207.41 171.792C209.136 169.006 210.731 166.152 212.194 163.24C225.841 136.074 199.215 110.875 168.832 111.923C138.449 112.97 112.97 89.1896 111.922 58.8069Z" stroke="#F5E14E" stroke-width="100" mask="url(#path-1-inside-1_258_49)"/>
</svg>
