<svg width="13" height="14" viewBox="0 0 13 14" fill="none" xmlns="http://www.w3.org/2000/svg">
<path d="M12.3078 8.8091L6.78839 2.23252C6.61789 2.02937 6.37368 1.90226 6.10947 1.87917L3 1.60742" stroke="#29A17C"/>
<path d="M2.25642 6.41081C2.17117 6.30924 2.12977 6.17796 2.14131 6.04585L1.64321 6.00232L2.14131 6.04585L2.326 3.93259C2.35004 3.65749 2.59254 3.45398 2.86763 3.47802L4.9809 3.66271C5.113 3.67425 5.23511 3.7378 5.32036 3.83938L10.1969 9.64997C10.3745 9.86149 10.3469 10.1769 10.1354 10.3544L7.83743 12.283C7.62591 12.4605 7.31053 12.4329 7.13301 12.2214L2.25642 6.41081Z" stroke="#29A17C"/>
</svg>
