<svg width="12" height="16" viewBox="0 0 12 16" fill="none" xmlns="http://www.w3.org/2000/svg">
<path d="M9.55504 0H1.81733C0.824356 0 0 0.805621 0 1.79859V14.2014C0 15.1944 0.805621 16 1.81733 16H9.55504C10.548 16 11.3724 15.1944 11.3724 14.2014V1.79859C11.3724 0.805621 10.5667 0 9.55504 0ZM10.8103 14.2014C10.8103 14.8946 10.2482 15.4379 9.55504 15.4379H1.81733C1.12412 15.4379 0.562061 14.8759 0.562061 14.2014V1.79859C0.562061 1.10539 1.12412 0.562061 1.81733 0.562061H9.55504C10.2482 0.562061 10.8103 1.12412 10.8103 1.79859V14.2014Z" fill="white"/>
<path d="M7.98093 1.7793H3.3533C3.20341 1.7793 3.07227 1.91044 3.07227 2.06033C3.07227 2.21021 3.20341 2.34136 3.3533 2.34136H7.98093C8.13081 2.34136 8.26196 2.21021 8.26196 2.06033C8.26196 1.91044 8.13081 1.7793 7.98093 1.7793Z" fill="white"/>
<path d="M5.67603 12.5156C5.15144 12.5156 4.73926 12.9465 4.73926 13.4524C4.73926 13.696 4.83293 13.9395 5.02029 14.1081C5.18891 14.2767 5.43247 14.3704 5.67603 14.3704C6.20062 14.3704 6.61279 13.9395 6.61279 13.4337C6.61279 12.9278 6.20062 12.5156 5.67603 12.5156ZM5.69476 13.8271C5.60108 13.8271 5.50741 13.7896 5.43247 13.7147C5.35752 13.6397 5.32005 13.5461 5.32005 13.4524C5.32005 13.2463 5.48867 13.0777 5.69476 13.0777C5.90085 13.0777 6.06947 13.2463 6.06947 13.4524C6.06947 13.6585 5.90085 13.8271 5.69476 13.8271Z" fill="white"/>
</svg>
