<svg width="13" height="14" viewBox="0 0 13 14" fill="none" xmlns="http://www.w3.org/2000/svg">
<path d="M12.3078 8.80861L6.78839 2.23203C6.61789 2.02888 6.37368 1.90178 6.10947 1.87869L3 1.60693" stroke="white"/>
<path d="M2.25642 6.41032C2.17117 6.30875 2.12977 6.17747 2.14131 6.04536L1.64321 6.00183L2.14131 6.04536L2.326 3.9321C2.35004 3.657 2.59254 3.45349 2.86763 3.47753L4.9809 3.66222C5.113 3.67376 5.23511 3.73731 5.32036 3.83889L10.1969 9.64948C10.3745 9.86101 10.3469 10.1764 10.1354 10.3539L7.83743 12.2825C7.62591 12.46 7.31053 12.4324 7.13301 12.2209L2.25642 6.41032Z" stroke="white"/>
</svg>
